<?xml version="1.0" encoding="utf-8"?>
<!-- Generator: Adobe Illustrator 23.0.4, SVG Export Plug-In . SVG Version: 6.00 Build 0)  -->
<svg version="1.1" id="Layer_1" xmlns="http://www.w3.org/2000/svg" xmlns:xlink="http://www.w3.org/1999/xlink" x="0px" y="0px"
	 viewBox="0 0 747 420" style="enable-background:new 0 0 747 420;" xml:space="preserve">
<style type="text/css">
	.st0{fill:#FFFFFF;}
</style>
<g>
	<path class="st0" d="M350.3,195.8l-3,14.7c0,0,0,0,0,0c7.8-4.1,16.6-6.7,26.1-7.8l11.8-59h-24.6l-6.6,33h-35.8l6.6-33h-24.6
		l-9.4,47.2l-19-80l-64.8,101.7h-31.8l3.7-19.1h24.5l10.4-16.4h-31.5l3.5-17.8h39.3l9.4-14.7l0.6-2.8h-81.7l-29,36l-14.1-36h-25
		l22.3,56.4l-6.3,31.8h25.2l6.4-32.6l27.7-34.9l-13.5,67.5h74.5l40.1-70l6.3,33.1l4.5,23l2.6,13.8h32.4l6.9-34.3H350.3z"/>
	<path class="st0" d="M656.3,281.7c4.7-7.7,7.1-16.8,7.1-27.1c0-7.5-1.8-14.1-5.3-19.6c-3.5-5.5-8.7-9.8-15.3-12.7
		c-6.8-3-15-4.6-24.5-4.6h-40.1l-5.7,28.7l-4.3-9c-0.4-0.9-1-1.9-1.6-2.9c-3.6-5.8-8.8-10.5-15.4-13.7c-6.8-3.3-14.8-5-24-5
		c-10.9,0-20.7,2.3-29.3,6.8c-0.8,0.4-1.5,0.8-2.1,1.2l-1.9,1.1l-1.8-1.3c-1.6-1.2-3.5-2.2-5.5-3.2c-6.8-3.3-14.8-5-24-5
		c-10.9,0-20.7,2.3-29.3,6.8c-8.5,4.5-15.2,10.8-20,18.9c-3.3,5.6-5.5,11.8-6.5,18.5l-0.4,2.8h-14.9v-0.1H384l-3.5,12.6h9.9
		l-2.4,11.8l-1.9,0.6c-3.3,1-6.8,1.5-10.3,1.5c-7.3,0-13.2-2-17.6-6c-4.4-4-6.6-9.4-6.6-16c0-1.8,0.1-3.5,0.3-5.2
		c0.5-4,1.6-7.8,3.4-11.3c2.5-4.9,6.1-8.8,10.8-11.6c4.6-2.7,10.1-4.1,16.1-4.1c5.1,0,9.6,0.9,13.5,2.7c1,0.5,2,1,2.9,1.6
		c0.7-1.4,1.5-2.9,2.3-4.2c2.9-4.9,6.4-9.4,10.5-13.3c-7.4-4-16.7-6.1-27.7-6.1c-11.3,0-21.5,2.3-30.2,6.9
		c-8.6,4.5-15.5,10.9-20.3,18.9c-3.8,6.3-6.1,13.5-6.9,21.3c-0.2,2.1-0.3,4.3-0.3,6.4c0,7.6,1.9,14.5,5.5,20.3
		c3.7,5.8,9,10.5,15.7,13.8c6.9,3.3,15,5,24.1,5c7.1,0,13.9-0.9,20.1-2.8c5.2-1.5,9.9-3.6,14-6.2c0.5-0.3,0.9-0.6,1.4-0.9l2.3-11.6
		l4.5,5.8c3.4,4.4,7.9,8,13.3,10.7c6.8,3.3,14.8,5,24,5c10.9,0,20.7-2.3,29.3-6.8c0.7-0.4,1.5-0.8,2.2-1.2l1.9-1.1l1.8,1.3
		c1.6,1.2,3.4,2.2,5.4,3.2c6.8,3.3,14.8,5,24,5c10.9,0,20.7-2.3,29.3-6.8c4.6-2.4,8.7-5.4,12.2-8.8l7.7-7.7l-4.2,20.8h46.8
		c10.9,0,20.7-2.1,29.2-6.4C644.9,295.4,651.6,289.4,656.3,281.7z M478.6,272.3c-1.9,4.2-4.5,7.7-7.8,10.5c-0.5,0.5-1.2,1-1.9,1.5
		c-4.3,3-9.4,4.5-15.1,4.5c-6.7,0-12.1-2-16-6c-3.9-4-5.9-9.3-5.9-15.8c0-5.7,1.1-11.1,3.3-15.9c2.2-5,5.5-9,9.8-11.9
		c4.3-3,9.4-4.5,15.1-4.5c6.5,0,11.8,1.9,15.7,5.7c0.1,0.1,0.3,0.3,0.5,0.5c3.8,3.8,5.8,9.1,5.8,15.6
		C481.8,262.2,480.7,267.5,478.6,272.3z M543.1,272.7c-2.2,5-5.5,9-9.8,11.9c-4.3,3-9.4,4.5-15.1,4.5c-6.5,0-11.8-1.9-15.7-5.7
		c-0.2-0.2-0.4-0.4-0.5-0.6c-3.8-3.8-5.7-9-5.7-15.5c0-5.7,1.1-11,3.3-15.9c1.9-4.2,4.5-7.7,7.8-10.4c0.5-0.5,1.2-1,1.9-1.5
		c4.3-3,9.4-4.5,15.1-4.5c6.7,0,12.1,2,16,6c3.9,4,5.9,9.3,5.9,15.8C546.3,262.5,545.2,267.9,543.1,272.7z M630.2,278.6L630.2,278.6
		c-5.3,6-12.6,9-21.8,9h-19l10.3-51.7h14.9c7.2,0,12.9,1.8,16.9,5.3c4.1,3.6,6.2,8.8,6.2,15.3C637.8,265.4,635.2,272.8,630.2,278.6z
		"/>
</g>
</svg>
